<svg width="196" height="49" viewBox="0 0 196 49" fill="none" xmlns="http://www.w3.org/2000/svg">
<path fill-rule="evenodd" clip-rule="evenodd" d="M47.3803 32.0387L42.3286 26.987C41.5809 26.2393 40.3772 26.2393 39.6295 26.987L27.9942 38.6223L27.4106 39.2059C27.2647 39.3518 27.1188 39.443 26.9365 39.5342C25.4592 40.7925 22.6142 42.1968 20.444 42.5615C13.8604 43.674 10.2859 40.0083 9.08227 39.06L18.1097 48.0327C18.4744 48.3974 18.9486 48.598 19.4592 48.598H32.7541C33.2647 48.598 33.7389 48.3974 34.1037 48.0327L47.3985 34.7195C48.128 33.9901 48.128 32.7864 47.3803 32.0387Z" fill="url(#paint0_linear_103_1922)"/>
<path fill-rule="evenodd" clip-rule="evenodd" d="M20.6809 42.6704C22.8329 42.3057 25.4956 40.8102 26.9728 39.5336C26.2615 39.9166 25.3497 39.8072 24.7478 39.2053L8.77207 23.2296C8.02435 22.4819 8.02435 21.2782 8.77207 20.5305L20.991 8.31159C21.7387 7.56386 21.7387 6.36021 20.991 5.61249L15.9393 0.560793C15.1916 -0.186931 13.9879 -0.186931 13.2402 0.560793L0.565353 13.2356C0.20061 13.6004 0 14.0745 0 14.5852V29.1567C0 29.6673 0.20061 30.1415 0.565353 30.5062L9.10034 39.0412C10.3222 40.0078 14.0973 43.7829 20.6809 42.6704Z" fill="url(#paint1_linear_103_1922)"/>
<path fill-rule="evenodd" clip-rule="evenodd" d="M26.4809 28.4259L19.9156 21.8605C19.5508 21.4958 19.6785 20.8757 20.1527 20.6751L30.9308 16.2252C31.5326 15.9881 32.1162 16.5717 31.8974 17.1553L27.6846 28.1706C27.484 28.663 26.8457 28.8089 26.4809 28.4259Z" fill="url(#paint2_linear_103_1922)"/>
<path d="M99.569 21.8776C99.569 24.9025 98.5785 27.4187 96.5709 29.4532C94.5632 31.4608 92.047 32.478 89.0221 32.478C86.1043 32.478 83.6416 31.4876 81.6072 29.5067C79.5728 27.499 78.5556 25.0363 78.5556 22.1453C78.5556 19.2275 79.5996 16.7916 81.6607 14.8374C83.6952 12.9369 86.1846 12 89.1024 12C91.2975 12 93.3051 12.6424 95.1789 13.9005C97.1063 15.2122 98.3644 16.8986 98.9533 18.9598H93.3051C92.3414 17.2466 90.8959 16.4168 88.9686 16.4168C87.3892 16.4168 86.0776 16.9789 85.0604 18.1032C84.0699 19.2007 83.5881 20.5392 83.5881 22.1453C83.5881 23.805 84.0699 25.1969 85.0336 26.3212C86.0508 27.499 87.3625 28.0879 88.9954 28.0879C90.1196 28.0879 91.1101 27.8203 91.9399 27.3117C92.8233 26.7495 93.4122 25.9465 93.7066 24.9025H87.8175V20.8872H99.5155C99.5155 21.0478 99.5422 21.2084 99.5422 21.3958V21.8776H99.569Z" fill="white"/>
<path fill-rule="evenodd" clip-rule="evenodd" d="M103.451 24.312V20.4305C103.451 20.2163 103.665 20.0557 103.879 20.136L108.403 22.0098C108.644 22.1169 108.644 22.4649 108.403 22.572L103.879 24.6064C103.692 24.6867 103.451 24.5261 103.451 24.312Z" fill="white"/>
<path d="M65.3854 32.045V12.1023H76.4676V16.5727H70.2573V19.6779H76.2534V24.1482H70.2573V27.5746H76.4408V32.045H65.3854Z" fill="white"/>
<path d="M171.713 12.0984H178.597L183.332 23.6384H183.571L188.306 12.0984H195.191V32.4725H189.779V20.6937H189.62L185.083 32.3133H181.82L177.284 20.6141H177.124V32.4725H171.713V12.0984Z" fill="white"/>
<path d="M154.708 32.4725H148.74L155.465 12.0984H163.025L169.75 32.4725H163.781L159.325 17.7092H159.165L154.708 32.4725ZM153.594 24.4343H164.816V28.5728H153.594V24.4343Z" fill="white"/>
<path d="M131.989 32.4725V12.0984H146.673V16.5552H137.52V20.057H145.917V24.5139H137.52V28.0157H146.633V32.4725H131.989Z" fill="white"/>
<path d="M112.199 16.5552V12.0983H129.907V16.5552H123.779V32.4725H118.327V16.5552H112.199Z" fill="white"/>
<defs>
<linearGradient id="paint0_linear_103_1922" x1="33.1548" y1="23.8797" x2="25.5878" y2="44.3479" gradientUnits="userSpaceOnUse">
<stop stop-color="#00AA71"/>
<stop offset="1" stop-color="#01E699"/>
</linearGradient>
<linearGradient id="paint1_linear_103_1922" x1="13.492" y1="41.1315" x2="13.492" y2="2.02305" gradientUnits="userSpaceOnUse">
<stop stop-color="#00AA71"/>
<stop offset="1" stop-color="#01E69A"/>
</linearGradient>
<linearGradient id="paint2_linear_103_1922" x1="27.078" y1="15.0358" x2="23.6046" y2="26.324" gradientUnits="userSpaceOnUse">
<stop stop-color="#01E699"/>
<stop offset="1" stop-color="#00AA71"/>
</linearGradient>
</defs>
</svg>
